
<svg width="42" height="50" viewBox="0 0 42 50" fill="none" xmlns="http://www.w3.org/2000/svg">
<g id="Component 54">
<rect id="Rectangle 118" width="23.0362" height="4.60856" transform="matrix(0.705111 -0.709097 -0.705111 -0.709097 21.1694 32.8379)" fill="#F3CA07"/>
<rect id="Rectangle 114" width="4.60856" height="18.4342" transform="matrix(0.705111 -0.709097 -0.705111 -0.709097 17.7471 41.3145)" fill="#F28D52"/>
<rect id="Rectangle 116" width="4.60856" height="23.0428" transform="matrix(0.705111 -0.709097 -0.705111 -0.709097 34 31.4961)" fill="#F28D52"/>
<rect id="Rectangle 115" width="18.4342" height="4.60856" transform="matrix(0.705111 -0.709097 -0.705111 -0.709097 24.2393 41.3125)" fill="#F28D52"/>
<rect id="Rectangle 117" width="23.0428" height="4.60856" transform="matrix(0.705112 -0.709096 -0.705112 -0.709096 8.00342 31.4961)" fill="#F28D52"/>
<rect id="Rectangle 120" width="18.4342" height="4.60856" transform="matrix(0.705111 -0.709097 -0.705111 -0.709097 11.2529 16.3398)" fill="#F3CA07"/>
<rect id="Rectangle 125" width="21.4512" height="4.62042" transform="matrix(0.977908 -0.209036 0.206793 0.978385 0 42.5508)" fill="#8C452B"/>
<rect id="Rectangle 128" width="10.3839" height="4.60206" transform="matrix(0.497889 -0.867241 0.864802 0.502114 12.6802 47.6855)" fill="#8C452B"/>
<rect id="Rectangle 129" width="10.3838" height="4.60205" transform="matrix(0.497887 0.867242 0.864801 -0.502116 20.0674 40.9941)" fill="#8C452B"/>
<rect id="Rectangle 127" width="21.4512" height="4.62042" transform="matrix(0.977908 0.209036 0.206793 -0.978385 20.0674 42.5898)" fill="#8C452B"/>
<rect id="Rectangle 119" width="4.60856" height="22.3818" transform="matrix(0.705112 -0.709096 -0.705112 -0.709096 20.5352 32.209)" fill="#F3CA07"/>
</g>
</svg>
